<svg width="62" height="69" viewBox="0 0 62 69" fill="none" xmlns="http://www.w3.org/2000/svg">
<path d="M7.11908 53.6804L16.1705 58.8386" stroke="#0116CB" stroke-width="4" stroke-miterlimit="10"/>
<path d="M17.3215 59.4949L27.669 65.3919" stroke="#0116CB" stroke-width="4" stroke-miterlimit="10"/>
<path d="M5.94896 53.0135C4.96681 52.3374 4.16399 51.4325 3.60983 50.3767C3.05567 49.321 2.76684 48.1462 2.76826 46.9539L2.66827 22.2631" stroke="#0116CB" stroke-width="4" stroke-miterlimit="10"/>
<path d="M7.11907 53.6804L5.94885 53.0139C6.31824 53.2705 6.70988 53.4936 7.11907 53.6804V53.6804Z" stroke="#0116CB" stroke-width="4" stroke-miterlimit="10"/>
<path d="M27.4132 3.50922L25.5245 4.61834L27.4917 3.46738C27.465 3.48219 27.4391 3.49441 27.4132 3.50922Z" stroke="#0116CB" stroke-width="4" stroke-miterlimit="10"/>
<path d="M38.4254 8.92184C37.7532 3.83917 32.0755 0.848824 27.4905 3.46737L25.5234 4.61833L6.27441 15.9132C5.17006 16.5633 4.25575 17.4919 3.62291 18.6063C2.99006 19.7206 2.66085 20.9816 2.66821 22.2631L2.7682 46.9539C2.76659 48.1464 3.05534 49.3214 3.60951 50.3773C4.16368 51.4333 4.96659 52.3384 5.94889 53.0146L7.11911 53.6812" stroke="#0116CB" stroke-width="4" stroke-miterlimit="10"/>
<path d="M34.5396 65.8444C34.7769 65.7378 35.0084 65.6189 35.2332 65.4881L56.3875 53.0672C56.4082 53.0553 56.4275 53.0413 56.4479 53.0302L34.5396 65.8444Z" stroke="#0116CB" stroke-width="4" stroke-miterlimit="10"/>
<path d="M28.1241 65.6511L27.669 65.3918C27.8179 65.4832 27.9696 65.5696 28.1241 65.6511Z" stroke="#0116CB" stroke-width="4" stroke-miterlimit="10"/>
<path d="M27.669 65.3919L28.1241 65.6511C29.1068 66.1738 30.1967 66.4632 31.3093 66.4967C32.4219 66.5302 33.5272 66.307 34.5396 65.8444L56.4478 53.029C57.5357 52.3747 58.435 51.4491 59.0577 50.3428C59.6804 49.2365 60.0051 47.9875 60 46.718L59.9344 22.0175C59.92 16.3183 53.7393 12.7573 48.8473 15.628L48.777 15.6691C48.777 15.6754 48.777 15.6813 48.777 15.6873" stroke="#0116CB" stroke-width="4" stroke-miterlimit="10"/>
<path d="M17.3215 59.4948L16.1705 58.8386C16.5343 59.0906 16.9194 59.3102 17.3215 59.4948Z" stroke="#0116CB" stroke-width="4" stroke-miterlimit="10"/>
<path d="M48.7759 15.6691C48.772 14.4436 48.4634 13.2383 47.8778 12.1618C47.2923 11.0852 46.4482 10.1712 45.4216 9.50195C44.395 8.83272 43.2181 8.42931 41.9968 8.32804C40.7755 8.22677 39.5482 8.43082 38.4254 8.92182" stroke="#0116CB" stroke-width="4" stroke-miterlimit="10"/>
<path d="M48.9143 24.6479C48.9106 24.2535 48.7662 16.312 48.7662 16.312C48.7662 16.1164 48.7551 15.9246 48.7403 15.7365C48.6481 15.7843 48.5551 15.8324 48.4674 15.8846L41.589 19.9204L27.3768 28.2593C26.372 28.8503 25.5235 29.6735 24.9024 30.6598C24.2812 31.6462 23.9054 32.7671 23.8065 33.9285L23.8876 50.6301C23.8885 51.5398 24.1285 52.4334 24.5837 53.2212C25.0388 54.0089 25.6931 54.6632 26.4809 55.1183C27.2686 55.5734 28.1622 55.8134 29.072 55.8141C29.9818 55.8149 30.8758 55.5765 31.6644 55.1228L46.0906 46.6498L46.4669 46.4277C47.2405 45.9716 47.8808 45.3203 48.3236 44.539C48.7664 43.7576 48.9962 42.8737 48.9899 41.9756L48.9143 24.6479Z" stroke="#0116CB" stroke-width="4" stroke-miterlimit="10"/>
<path d="M38.5583 17.901C38.5546 17.5048 38.4102 9.53174 38.4102 9.53174C38.4102 9.33547 38.3991 9.1429 38.3843 8.95404C38.2917 9.00218 38.1991 9.05032 38.1102 9.10217L31.2037 13.1535L16.9352 21.5265C15.9265 22.1199 15.0747 22.9463 14.451 23.9366C13.8273 24.9269 13.4499 26.0522 13.3505 27.2183L13.432 43.9865C13.433 44.8997 13.6741 45.7966 14.131 46.5872C14.5879 47.3779 15.2446 48.0346 16.0353 48.4914C16.826 48.9483 17.7229 49.1893 18.6361 49.1903C19.5493 49.1913 20.4467 48.9522 21.2384 48.497L35.7217 39.9907L36.0994 39.7685C36.8761 39.3106 37.5189 38.6567 37.9634 37.8722C38.408 37.0878 38.6386 36.2004 38.6324 35.2987L38.5583 17.901Z" stroke="#0116CB" stroke-width="4" stroke-miterlimit="10"/>
</svg>
